<svg xmlns="http://www.w3.org/2000/svg" width="36" height="36" viewBox="0 0 36 36">
    <g fill="none" fill-rule="nonzero">
        <path fill="#EFAE08" d="M29.69 23.41L19.847 7.082A2.168 2.168 0 0 0 18 6.04c-.751 0-1.459.4-1.847 1.043L6.31 23.409a2.16 2.16 0 0 0-.03 2.174 2.16 2.16 0 0 0 1.877 1.096h19.688a2.16 2.16 0 0 0 1.878-1.096 2.16 2.16 0 0 0-.031-2.174z"/>
        <path fill="#FFF" d="M18.007 12.469c-.594 0-1.058.319-1.058.884 0 1.725.203 4.204.203 5.93 0 .449.391.637.855.637.348 0 .841-.188.841-.637 0-1.726.203-4.205.203-5.93 0-.565-.478-.884-1.044-.884zM18.022 20.92c-.638 0-1.116.508-1.116 1.117 0 .594.478 1.116 1.116 1.116.594 0 1.102-.522 1.102-1.116 0-.609-.508-1.116-1.102-1.116z"/>
    </g>
</svg>
