<svg xmlns="http://www.w3.org/2000/svg" width="45" height="47" viewBox="0 0 45 47">
    <g fill="none" fill-rule="evenodd">
        <path fill="#F0BC1F" d="M40.674 30.518L12.34 46.021A8 8 0 0 1 .5 39.003V7.997A8 8 0 0 1 12.34.979l28.334 15.503a8 8 0 0 1 0 14.036z" opacity=".6"/>
        <g fill="#7D44F0" fill-rule="nonzero">
            <path d="M20.34 11.6h6.388c1.034 0 1.883.802 1.958 1.817l.006.147v1.06a15.371 15.371 0 0 1 4.356 2.434l.353.29.923-.533a1.954 1.954 0 0 1 1.49-.196c.45.12.835.391 1.099.769l.093.146 3.194 5.532c.262.453.332.984.196 1.49-.12.45-.391.835-.768 1.099l-.147.093-.922.532a15.002 15.002 0 0 1 .085 4.89l-.09.547.927.535.136.086a1.966 1.966 0 0 1 .662 2.446l-.079.15-3.194 5.532a1.966 1.966 0 0 1-2.54.793l-.142-.074-.93-.537a15.412 15.412 0 0 1-4.28 2.569l-.422.16v1.06a1.966 1.966 0 0 1-1.818 1.958l-.146.005h-6.387a1.966 1.966 0 0 1-1.959-1.817l-.005-.147v-1.059a15.372 15.372 0 0 1-4.357-2.435l-.353-.29-.922.533a1.966 1.966 0 0 1-2.597-.583l-.086-.136-3.194-5.532a1.966 1.966 0 0 1 .583-2.596l.136-.086.922-.532a15.007 15.007 0 0 1-.085-4.89l.09-.547-.927-.535a1.953 1.953 0 0 1-.915-1.192c-.12-.45-.078-.92.116-1.336l.08-.154 3.194-5.532c.262-.453.687-.78 1.193-.915.45-.12.918-.078 1.336.116l.154.08.929.537a15.412 15.412 0 0 1 4.28-2.569l.423-.16v-1.06c0-1.033.802-1.883 1.817-1.958l.147-.005h6.387-6.387zm6.388 1.798h-6.387a.166.166 0 0 0-.166.166v1.706a.9.9 0 0 1-.633.859 13.539 13.539 0 0 0-5.147 2.985.899.899 0 0 1-1.06.119l-1.49-.86a.162.162 0 0 0-.125-.017.162.162 0 0 0-.1.077l-3.194 5.532a.162.162 0 0 0-.017.125.162.162 0 0 0 .077.101l1.487.859a.9.9 0 0 1 .428.976c-.225.998-.34 2-.34 2.974 0 .992.113 1.994.335 2.977a.899.899 0 0 1-.428.976l-1.482.856a.166.166 0 0 0-.06.226l3.193 5.532a.166.166 0 0 0 .227.06l1.483-.856a.898.898 0 0 1 1.06.119 13.541 13.541 0 0 0 5.153 2.981.9.9 0 0 1 .633.86v1.705c0 .091.075.166.166.166h6.387c.09 0 .166-.075.166-.166V42.73a.9.9 0 0 1 .633-.859 13.539 13.539 0 0 0 5.146-2.985.899.899 0 0 1 1.06-.119l1.49.86c.079.046.18.019.226-.06l3.194-5.532.019-.05a.166.166 0 0 0-.08-.176l-1.487-.859a.9.9 0 0 1-.427-.976c.225-.998.34-2 .34-2.974 0-.992-.113-1.994-.335-2.977a.899.899 0 0 1 .427-.976l1.482-.856a.162.162 0 0 0 .077-.1.162.162 0 0 0-.016-.126l-3.194-5.532a.162.162 0 0 0-.1-.077.162.162 0 0 0-.126.017l-1.483.856a.899.899 0 0 1-1.06-.119 13.54 13.54 0 0 0-5.154-2.981.9.9 0 0 1-.632-.86v-1.705a.166.166 0 0 0-.166-.166z"/>
            <path d="M23.534 18.52c5.78 0 10.48 4.7 10.48 10.48s-4.7 10.48-10.48 10.48c-5.779 0-10.48-4.7-10.48-10.48s4.701-10.48 10.48-10.48zm0 1.798c-4.787 0-8.682 3.895-8.682 8.682 0 4.787 3.895 8.682 8.682 8.682 4.787 0 8.682-3.895 8.682-8.682 0-4.787-3.895-8.682-8.682-8.682z"/>
            <path d="M24.994 26.09a.2.2 0 0 1 .188.269l-2.125 5.71a.2.2 0 0 1-.188.131h-.867a.2.2 0 0 1-.187-.27l2.128-5.71a.2.2 0 0 1 .188-.13h.863zm-3.23.988v.762l-.115.18-2.452 1.152 2.444 1.01.123.185v.77a.2.2 0 0 1-.28.183l-3.817-1.68-.119-.183v-.473l.11-.179 3.817-1.906a.2.2 0 0 1 .29.18zm3.76-.179l3.817 1.906.111.18v.472l-.12.183-3.816 1.68a.2.2 0 0 1-.28-.183v-.77l.123-.185 2.444-1.01-2.452-1.151-.115-.181v-.762a.2.2 0 0 1 .289-.179z"/>
        </g>
    </g>
</svg>
