<svg xmlns="http://www.w3.org/2000/svg" xmlns:xlink="http://www.w3.org/1999/xlink" width="501" height="910" viewBox="0 0 501 910">
    <defs>
        <path id="a" d="M.001.375H48.26v202.026H.001z"/>
        <path id="c" d="M.001.777h424.847v202.026H.001z"/>
    </defs>
    <g fill="none" fill-rule="evenodd">
        <path fill="#F4F4F4" d="M353.766 202.87L252.157 101.777h87.933L441.7 202.87h-87.934"/>
        <g transform="matrix(-1 0 0 1 501 303)">
            <mask id="b" fill="#fff">
                <use xlink:href="#a"/>
            </mask>
            <path fill="#EDEDED" d="M-53.349 101.468L48.26.375h-87.933l-101.451 100.934h-.942l101.61 101.092h87.933l-101.45-100.933h.624" mask="url(#b)"/>
        </g>
        <path fill="#E0E0E0" d="M514.294 706.999L412.685 808.092h87.934l101.609-101.093h-87.934"/>
        <path fill="#EDEDED" d="M528.988 605.906L427.379 706.999h87.933l101.609-101.093h-87.933M542.393 504.973l-101.61 101.092h87.933l101.61-101.092h-87.933"/>
        <path fill="#E0E0E0" d="M515.079 101.777L413.468.685h87.934l101.609 101.092h-87.932M588.386 808.092L486.777 909.184h87.933l101.61-101.092h-87.934"/>
        <path fill="#F4F4F4" d="M500.383 808.092L398.774 909.184h87.934l101.609-101.092h-87.934"/>
        <path fill="#EDEDED" d="M602.297 706.999L500.688 808.092h87.934l101.609-101.093h-87.934M338.291 706.999L236.68 808.092h87.934l101.609-101.093h-87.932"/>
        <path fill="#F9F9F9" d="M352.983 605.906l-101.61 101.093h87.934l101.61-101.093h-87.934"/>
        <path fill="#E0E0E0" d="M366.388 504.973L264.779 606.065h87.932l101.611-101.092h-87.934M290.342 404.468L188.733 303.375h87.933l101.45 100.934h.943L277.45 505.401h-87.934l101.45-100.933h-.624"/>
        <path fill="#EDEDED" d="M339.074 101.777L237.463.685h87.934l101.609 101.092h-87.932M529.771 202.87L428.162 101.777h87.933l101.61 101.093h-87.934M265.764 202.87L164.155 101.777h87.932L353.698 202.87h-87.934"/>
        <g transform="matrix(-1 0 0 1 501 101)">
            <mask id="d" fill="#fff">
                <use xlink:href="#c"/>
            </mask>
            <path fill="#F9F9F9" d="M323.239 101.87L424.848.777h-87.933L235.305 101.87h87.934" mask="url(#d)"/>
            <path fill="#F4F4F4" d="M-42.176 202.803l101.61-101.092H-28.5l-101.609 101.092h87.933" mask="url(#d)"/>
        </g>
        <path fill="#E0E0E0" d="M367.171 303.803L265.562 202.711h87.933l101.61 101.092h-87.934"/>
        <path fill="#F9F9F9" d="M114.337 404.468L12.728 303.375h87.934l101.449 100.934h.943L101.445 505.401H13.511l101.451-100.933h-.625"/>
        <path fill="#EDEDED" d="M191.167 303.803L89.557 202.71h87.934L279.1 303.803h-87.933"/>
        <path fill="#F9F9F9" d="M103.164 303.803L1.554 202.71h87.934l101.609 101.093h-87.933"/>
        <path fill="#EDEDED" d="M466.347 404.468L364.738 303.375h87.933l101.45 100.934h.943L453.455 505.401h-87.934L466.97 404.468h-.623"/>
        <path fill="#E0E0E0" d="M324.378 808.092L222.769 909.184h87.934l101.609-101.092h-87.934"/>
        <path fill="#EDEDED" d="M190.383 504.973L88.774 606.065h87.934l101.609-101.092h-87.934"/>
        <path fill="#F9F9F9" d="M102.38 504.973L.771 606.065h87.934l101.609-101.092H102.38"/>
        <path fill="#EDEDED" d="M202.34 404.468L100.73 303.375h87.934l101.45 100.934h.943l-101.61 101.092h-87.933l101.449-100.933h-.623"/>
        <path fill="#F9F9F9" d="M378.345 404.468l-101.61-101.093h87.933l101.451 100.934h.942L365.452 505.401h-87.934l101.45-100.933h-.623"/>
        <path fill="#F4F4F4" d="M278.385 504.973L176.776 606.065h87.933l101.61-101.092h-87.934"/>
        <path fill="#EDEDED" d="M264.981 605.906L163.372 706.999h87.932l101.611-101.093h-87.934"/>
        <g fill="#F9F9F9">
            <path d="M176.978 605.906L75.369 706.999h87.933l101.61-101.093h-87.934M454.39 504.973L352.781 606.065h87.933l101.61-101.092H454.39"/>
        </g>
        <g fill="#E0E0E0">
            <path d="M440.986 605.906L339.375 706.999h87.934l101.61-101.093h-87.933"/>
        </g>
        <g>
            <path fill="#F9F9F9" d="M250.288 706.999l-101.61 101.093h87.934l101.609-101.093h-87.933M426.293 706.999l-101.61 101.093h87.934l101.609-101.093h-87.933"/>
            <path fill="#EDEDED" d="M412.381 808.092L310.772 909.184h87.933l101.61-101.092h-87.934"/>
            <path fill="#F9F9F9" d="M427.076 101.777L325.466.685H413.4l101.609 101.092h-87.933"/>
            <path fill="#E0E0E0" d="M441.769 202.87L340.16 101.777h87.932L529.703 202.87h-87.934"/>
            <path fill="#F9F9F9" d="M455.173 303.803L353.564 202.71h87.934l101.609 101.093h-87.934M251.071 101.777L149.461.685h87.934l101.609 101.092h-87.933"/>
        </g>
        <path fill="#F4F4F4" d="M279.168 303.803L177.559 202.71h87.934l101.609 101.093h-87.934"/>
    </g>
</svg>
