<svg xmlns="http://www.w3.org/2000/svg" width="50" height="56" viewBox="0 0 50 56">
    <g fill="none" fill-rule="evenodd">
        <path fill="#F0BC1F" d="M28 1.732l18.249 10.536a6 6 0 0 1 3 5.196v21.072a6 6 0 0 1-3 5.196L28 54.268a6 6 0 0 1-6 0L3.751 43.732a6 6 0 0 1-3-5.196V17.464a6 6 0 0 1 3-5.196L22 1.732a6 6 0 0 1 6 0z" opacity=".6"/>
        <g fill="#7D44F0" fill-rule="nonzero">
            <path d="M23.5 17.5h24a2 2 0 0 1 2 2v30a2 2 0 0 1-2 2h-24a2 2 0 0 1-2-2v-30a2 2 0 0 1 2-2zm0 2v30h24v-30h-24z"/>
            <path d="M26.5 23.5a1 1 0 0 1 1-1h16a1 1 0 0 1 1 1v9a1 1 0 0 1-1 1h-16a1 1 0 0 1-1-1v-9zm2 1v7h14v-7h-14zM27.97 40.25h15.06a1 1 0 0 0 0-2H27.97a1 1 0 0 0 0 2zM27.97 46.25h15.06a1 1 0 0 0 0-2H27.97a1 1 0 0 0 0 2z"/>
        </g>
    </g>
</svg>
