<svg xmlns="http://www.w3.org/2000/svg" width="45" height="47" viewBox="0 0 45 47">
    <g fill="none" fill-rule="evenodd">
        <path fill="#F0BC1F" d="M40.674 30.518L12.34 46.021A8 8 0 0 1 .5 39.003V7.997A8 8 0 0 1 12.34.979l28.334 15.503a8 8 0 0 1 0 14.036z" opacity=".6"/>
        <g fill="#7D44F0" fill-rule="nonzero">
            <path d="M20.606 32.735a1.13 1.13 0 0 0 2.246-.232l-.52-4.038a1.129 1.129 0 1 0-2.247.232l.521 4.038zM27.67 33.742a1.13 1.13 0 0 0 1.239-1.007l.521-4.038a1.129 1.129 0 1 0-2.245-.232l-.52 4.038a1.129 1.129 0 0 0 1.006 1.239zM18.93 39.649a3.498 3.498 0 0 0-3.495 3.494 3.499 3.499 0 0 0 3.495 3.495 3.499 3.499 0 0 0 3.494-3.495 3.498 3.498 0 0 0-3.494-3.494zm0 4.732a1.238 1.238 0 0 1 0-2.474 1.238 1.238 0 0 1 0 2.474zM30.586 39.649a3.498 3.498 0 0 0-3.494 3.494 3.499 3.499 0 0 0 3.494 3.495 3.5 3.5 0 0 0 3.495-3.495 3.499 3.499 0 0 0-3.495-3.494zm0 4.732a1.238 1.238 0 1 1 1.237-1.237c0 .681-.555 1.237-1.237 1.237z"/>
            <path d="M37.339 23.692a1.129 1.129 0 0 0-.893-.438H13.944l-.945-3.634a1.13 1.13 0 0 0-1.093-.845H7.28a1.129 1.129 0 0 0 0 2.258h3.754l.937 3.601c.005.023.01.045.017.067l3.485 12.4c.13.497.578.845 1.092.845h16.388a1.13 1.13 0 0 0 1.093-.845l3.494-12.434a1.13 1.13 0 0 0-.2-.975zm-5.26 11.996H17.437l-2.906-10.176h20.455l-2.907 10.176zM20.09 16.91l6.611.001-1.726 1.727a1.129 1.129 0 1 0 1.596 1.596l3.652-3.652c.441-.441.441-1.156 0-1.597l-3.654-3.654a1.129 1.129 0 0 0-1.597 1.596l1.726 1.726H20.09a1.129 1.129 0 0 0 0 2.258z"/>
        </g>
    </g>
</svg>
