<svg xmlns="http://www.w3.org/2000/svg" xmlns:xlink="http://www.w3.org/1999/xlink" width="404" height="366" viewBox="0 0 404 366">
    <defs>
        <path id="a" d="M0 .052h138.868v79.876H0z"/>
        <path id="c" d="M0 .048H171.87v136.88H0z"/>
    </defs>
    <g fill="none" fill-rule="evenodd" opacity=".9">
        <g transform="translate(265 60)">
            <mask id="b" fill="#fff">
                <use xlink:href="#a"/>
            </mask>
            <path fill="#05F0E8" d="M109.627 79.018l-98.855-34.58C1.25 41.105-2.883 29.983 2.174 21.293L9.951 8.052c3.88-6.668 11.984-9.646 19.29-7.09l98.855 34.58c9.524 3.333 13.656 14.454 8.6 23.144l-7.779 13.242c-3.88 6.668-11.983 9.646-19.29 7.09" mask="url(#b)" opacity=".4"/>
        </g>
        <path stroke="#7D44F0" stroke-width="6" d="M187.545 361.954L74.337 322.213c-10.907-3.829-15.638-16.61-9.848-26.596L196.364 68.193c4.443-7.663 13.722-11.085 22.09-8.148l113.21 39.742c10.905 3.828 15.638 16.61 9.846 26.597L209.637 353.807c-4.444 7.662-13.723 11.086-22.092 8.147z"/>
        <path fill="#7D44F0" d="M157.545 305.954L44.337 266.213c-10.907-3.829-15.638-16.61-9.848-26.596L166.364 12.193c4.443-7.663 13.722-11.085 22.09-8.148l113.21 39.742c10.905 3.828 15.638 16.61 9.846 26.597L179.637 297.807c-4.444 7.662-13.723 11.086-22.092 8.147" opacity=".6"/>
        <g transform="translate(232 165)">
            <mask id="d" fill="#fff">
                <use xlink:href="#c"/>
            </mask>
            <path fill="#F0BC1F" d="M109.007 136.02l-98.295-34.494c-9.47-3.323-13.578-14.418-8.55-23.086L43.68 8.028C47.54 1.376 55.596-1.595 62.862.955l98.296 34.495c9.47 3.324 13.578 14.417 8.55 23.085l-41.52 70.413c-3.857 6.652-11.915 9.622-19.18 7.072" mask="url(#d)" opacity=".6"/>
        </g>
        <path fill="#05F0E8" d="M108.941 312.1L10.705 277.9c-9.464-3.295-13.57-14.295-8.545-22.89l7.728-13.097c3.857-6.595 11.91-9.54 19.17-7.012l98.236 34.201c9.465 3.296 13.57 14.295 8.546 22.89l-7.73 13.097c-3.855 6.595-11.907 9.54-19.169 7.012" opacity=".6"/>
        <path fill="#F0BC1F" d="M193.414 79.606a16.1 16.1 0 0 1 8.578 9.126 16.007 16.007 0 0 1-1.175 13.66l-34.042 57.582c-2.951 5.075-8.367 8.026-14.016 8.026-1.789 0-3.6-.296-5.366-.913l-80.565-28.2a16.11 16.11 0 0 1-9.819-9.618 16 16 0 0 1 1.174-13.66l34.041-57.581c3.887-6.684 12.043-9.684 19.383-7.114l75.971 26.591-3.13 5.375-74.877-26.207a10.053 10.053 0 0 0-3.332-.569c-3.512 0-6.878 1.836-8.718 5l-34.04 57.58a9.936 9.936 0 0 0-.72 8.47 10.017 10.017 0 0 0 6.101 5.976l80.566 28.198c4.56 1.597 9.628-.267 12.05-4.431l34.042-57.58a9.938 9.938 0 0 0 .719-8.47 10.006 10.006 0 0 0-5.898-5.902l3.073-5.34z"/>
        <path fill="#7D44F0" d="M350.5 278c-10.2 0-18.5 8.3-18.5 18.5s8.3 18.5 18.5 18.5 18.5-8.3 18.5-18.5c0-4.018-1.266-7.839-3.663-11.052l-4.913 8.362c.235.868.354 1.77.354 2.69 0 5.667-4.61 10.278-10.278 10.278-5.667 0-10.278-4.61-10.278-10.278 0-3.484 1.743-6.57 4.402-8.429L350.5 278z"/>
        <path fill="#7D44F0" d="M356.618 363L346 340.61V313h8.176v25.755L364 359.471z"/>
        <path fill="#7D44F0" d="M398.93 365h-80.86c-1.695 0-3.07-1.12-3.07-2.5s1.375-2.5 3.07-2.5h80.86c1.695 0 3.07 1.12 3.07 2.5s-1.375 2.5-3.07 2.5"/>
        <g fill="#7D44F0" opacity=".6">
            <path d="M74.9 3.73l2.595 23.898L95.758 48.45l6.225-5.4-17.037-19.423-2.09-22.11z"/>
            <path d="M118.525.92L36.952.19a3.088 3.088 0 0 0-3.125 3.052 3.088 3.088 0 0 0 3.069 3.11l81.573.728a3.09 3.09 0 0 0 3.126-3.053 3.09 3.09 0 0 0-3.07-3.109M120.354 54.136a11.377 11.377 0 0 0-10.49-6.966c-6.264 0-11.359 5.069-11.359 11.298 0 6.23 5.095 11.297 11.359 11.297 5.431 0 9.983-3.81 11.097-8.884l5.874 2.055c-1.988 7.47-8.844 12.991-16.971 12.991-9.68 0-17.555-7.832-17.555-17.46 0-9.627 7.875-17.459 17.555-17.459 9.035 0 16.498 6.825 17.45 15.564l-6.96-2.436z"/>
        </g>
    </g>
</svg>
