<svg xmlns="http://www.w3.org/2000/svg" width="36" height="36" viewBox="0 0 36 36">
    <g fill="none" fill-rule="nonzero">
        <path fill="#7D44F0" d="M17.538 29.077c6.373 0 11.539-5.166 11.539-11.539C29.077 11.166 23.91 6 17.538 6 11.166 6 6 11.166 6 17.538c0 6.373 5.166 11.539 11.538 11.539z"/>
        <path fill="#FFF" stroke="#FFF" stroke-width=".5" d="M18.23 23.274h-1.134v-6h1.134v6zM17 13.752c0-.26.064-.45.191-.57A.669.669 0 0 1 17.67 13c.182 0 .34.062.472.185.132.123.198.312.198.567 0 .255-.066.445-.198.57a.662.662 0 0 1-.472.189.655.655 0 0 1-.479-.188c-.127-.126-.191-.316-.191-.571z"/>
    </g>
</svg>
