<svg xmlns="http://www.w3.org/2000/svg" width="45" height="47" viewBox="0 0 45 47">
    <g fill="none" fill-rule="evenodd">
        <path fill="#F0BC1F" d="M40.674 30.518L12.34 46.021A8 8 0 0 1 .5 39.003V7.997A8 8 0 0 1 12.34.979l28.334 15.503a8 8 0 0 1 0 14.036z" opacity=".6"/>
        <g fill="#7D44F0" fill-rule="nonzero">
            <path d="M23.861 39.389a1.418 1.418 0 0 1 0 2.833 1.418 1.418 0 0 1 0-2.833zM21.462 17.63h4.37a.99.99 0 1 0 0-1.98h-4.37a.99.99 0 0 0 0 1.98z"/>
            <path d="M30.003 12.472a3.82 3.82 0 0 1 3.81 3.625l.005.19v25.426a3.82 3.82 0 0 1-3.625 3.81l-.19.005H17.291a3.82 3.82 0 0 1-3.81-3.625l-.006-.19V16.287a3.82 3.82 0 0 1 3.625-3.81l.19-.005h12.713zm1.835 25.755H15.456v3.486c0 1.011.823 1.834 1.835 1.834h12.712a1.838 1.838 0 0 0 1.835-1.834v-3.486zm0-17.418H15.456v15.438h16.382V20.809zm-1.835-6.356H17.291a1.837 1.837 0 0 0-1.835 1.834v2.541h16.382v-2.54a1.837 1.837 0 0 0-1.835-1.835z"/>
        </g>
    </g>
</svg>
