<svg xmlns="http://www.w3.org/2000/svg" width="53" height="56" viewBox="0 0 53 56">
    <g fill="none" fill-rule="evenodd">
        <path fill="#F0BC1F" d="M28 1.732l18.249 10.536a6 6 0 0 1 3 5.196v21.072a6 6 0 0 1-3 5.196L28 54.268a6 6 0 0 1-6 0L3.751 43.732a6 6 0 0 1-3-5.196V17.464a6 6 0 0 1 3-5.196L22 1.732a6 6 0 0 1 6 0z" opacity=".6"/>
        <g fill="#7D44F0" fill-rule="nonzero">
            <path d="M47.5 17.5a2 2 0 0 1 2 2v8h-2v-8h-24v30h26a2 2 0 0 1-2 2h-24a2 2 0 0 1-2-2v-30a2 2 0 0 1 2-2h24z"/>
            <path d="M43.5 22.5a1 1 0 0 1 1 1v5.416a5.018 5.018 0 0 0-2 1.584v-6h-14v7h13.416a4.983 4.983 0 0 0-.416 2h-14a1 1 0 0 1-1-1v-9a1 1 0 0 1 1-1h16zM27.619 40.25h9.762c.358 0 .648-.448.648-1s-.29-1-.648-1H27.62c-.358 0-.648.448-.648 1s.29 1 .648 1zM27.619 46.25h9.762c.358 0 .648-.448.648-1s-.29-1-.648-1H27.62c-.358 0-.648.448-.648 1s.29 1 .648 1zM40.5 36.5a1 1 0 0 1 1-1h10a1 1 0 0 1 1 1v10a1 1 0 0 1-1 1h-10a1 1 0 0 1-1-1v-10zm2 1v8h8v-8h-8z"/>
            <path d="M47 30.5a3.5 3.5 0 0 1 3.5 3.5v2.5a1 1 0 0 1-1 1h-5a1 1 0 0 1-1-1V34a3.5 3.5 0 0 1 3.5-3.5zm1.5 5V34a1.5 1.5 0 0 0-3 0v1.5h3z"/>
        </g>
    </g>
</svg>
