<svg xmlns="http://www.w3.org/2000/svg" width="45" height="47" viewBox="0 0 45 47">
    <g fill="none" fill-rule="evenodd">
        <path fill="#F0BC1F" d="M40.674 30.518L12.34 46.021A8 8 0 0 1 .5 39.003V7.997A8 8 0 0 1 12.34.979l28.334 15.503a8 8 0 0 1 0 14.036z" opacity=".6"/>
        <g fill="#7D44F0">
            <path fill-rule="nonzero" d="M23.497 13.345a2.195 2.195 0 0 1 2.947.483l.096.133 9.832 14.826c.584.88.455 2.041-.284 2.772l-.129.118L21.16 44.172a2.195 2.195 0 0 1-3.598-1.914l.022-.156 4.966-27.32.04-.174c.137-.516.459-.966.907-1.263zm.883 1.33a.598.598 0 0 0-.259.392l-4.966 27.321a.598.598 0 0 0 .975.564L34.93 30.457a.598.598 0 0 0 .112-.788L25.21 14.844a.598.598 0 0 0-.83-.168z"/>
            <path d="M17.264 13.328L11.51 43.403a1 1 0 0 0 1.608.968l17.146-13.755a1 1 0 0 0 .195-1.352l-11.393-16.32a1 1 0 0 0-1.802.384z"/>
        </g>
    </g>
</svg>
